<svg width="48" height="48" viewBox="0 0 48 48" fill="none" xmlns="http://www.w3.org/2000/svg">
<rect width="48" height="48" rx="12" fill="#EEF2FF"/>
<path d="M19 29H34V14H31.5V22.75L28.375 20.875L25.25 22.75V14H19V29ZM19 31.5C18.3125 31.5 17.724 31.2552 17.2344 30.7656C16.7448 30.276 16.5 29.6875 16.5 29V14C16.5 13.3125 16.7448 12.724 17.2344 12.2344C17.724 11.7448 18.3125 11.5 19 11.5H34C34.6875 11.5 35.276 11.7448 35.7656 12.2344C36.2552 12.724 36.5 13.3125 36.5 14V29C36.5 29.6875 36.2552 30.276 35.7656 30.7656C35.276 31.2552 34.6875 31.5 34 31.5H19ZM14 36.5C13.3125 36.5 12.724 36.2552 12.2344 35.7656C11.7448 35.276 11.5 34.6875 11.5 34V16.5H14V34H31.5V36.5H14ZM25.25 14H28.375H31.5H25.25ZM19 14H25.25H28.375H31.5H34H19Z" fill="#4F46E5"/>
</svg>
