<svg width="48" height="48" viewBox="0 0 48 48" fill="none" xmlns="http://www.w3.org/2000/svg">
<rect width="48" height="48" rx="12" fill="#6CF8BB" fill-opacity="0.2"/>
<path d="M26.5 21.375V19.25C27.1875 18.9583 27.8906 18.7396 28.6094 18.5938C29.3281 18.4479 30.0833 18.375 30.875 18.375C31.4167 18.375 31.9479 18.4167 32.4688 18.5C32.9896 18.5833 33.5 18.6875 34 18.8125V20.8125C33.5 20.625 32.9948 20.4844 32.4844 20.3906C31.974 20.2969 31.4375 20.25 30.875 20.25C30.0833 20.25 29.3229 20.349 28.5938 20.5469C27.8646 20.7448 27.1667 21.0208 26.5 21.375ZM26.5 28.25V26.125C27.1875 25.8333 27.8906 25.6146 28.6094 25.4688C29.3281 25.3229 30.0833 25.25 30.875 25.25C31.4167 25.25 31.9479 25.2917 32.4688 25.375C32.9896 25.4583 33.5 25.5625 34 25.6875V27.6875C33.5 27.5 32.9948 27.3594 32.4844 27.2656C31.974 27.1719 31.4375 27.125 30.875 27.125C30.0833 27.125 29.3229 27.2188 28.5938 27.4062C27.8646 27.5938 27.1667 27.875 26.5 28.25ZM26.5 24.8125V22.6875C27.1875 22.3958 27.8906 22.1771 28.6094 22.0312C29.3281 21.8854 30.0833 21.8125 30.875 21.8125C31.4167 21.8125 31.9479 21.8542 32.4688 21.9375C32.9896 22.0208 33.5 22.125 34 22.25V24.25C33.5 24.0625 32.9948 23.9219 32.4844 23.8281C31.974 23.7344 31.4375 23.6875 30.875 23.6875C30.0833 23.6875 29.3229 23.7865 28.5938 23.9844C27.8646 24.1823 27.1667 24.4583 26.5 24.8125ZM17.125 29C18.1042 29 19.0573 29.1094 19.9844 29.3281C20.9115 29.5469 21.8333 29.875 22.75 30.3125V18C21.8958 17.5 20.9896 17.125 20.0312 16.875C19.0729 16.625 18.1042 16.5 17.125 16.5C16.375 16.5 15.6302 16.5729 14.8906 16.7188C14.151 16.8646 13.4375 17.0833 12.75 17.375V29.75C13.4792 29.5 14.2031 29.3125 14.9219 29.1875C15.6406 29.0625 16.375 29 17.125 29ZM25.25 30.3125C26.1667 29.875 27.0885 29.5469 28.0156 29.3281C28.9427 29.1094 29.8958 29 30.875 29C31.625 29 32.3594 29.0625 33.0781 29.1875C33.7969 29.3125 34.5208 29.5 35.25 29.75V17.375C34.5625 17.0833 33.849 16.8646 33.1094 16.7188C32.3698 16.5729 31.625 16.5 30.875 16.5C29.8958 16.5 28.9271 16.625 27.9688 16.875C27.0104 17.125 26.1042 17.5 25.25 18V30.3125ZM24 34C23 33.2083 21.9167 32.5938 20.75 32.1562C19.5833 31.7188 18.375 31.5 17.125 31.5C16.25 31.5 15.3906 31.6146 14.5469 31.8438C13.7031 32.0729 12.8958 32.3958 12.125 32.8125C11.6875 33.0417 11.2656 33.0312 10.8594 32.7812C10.4531 32.5312 10.25 32.1667 10.25 31.6875V16.625C10.25 16.3958 10.3073 16.1771 10.4219 15.9688C10.5365 15.7604 10.7083 15.6042 10.9375 15.5C11.8958 15 12.8958 14.625 13.9375 14.375C14.9792 14.125 16.0417 14 17.125 14C18.3333 14 19.5156 14.1562 20.6719 14.4688C21.8281 14.7812 22.9375 15.25 24 15.875C25.0625 15.25 26.1719 14.7812 27.3281 14.4688C28.4844 14.1562 29.6667 14 30.875 14C31.9583 14 33.0208 14.125 34.0625 14.375C35.1042 14.625 36.1042 15 37.0625 15.5C37.2917 15.6042 37.4635 15.7604 37.5781 15.9688C37.6927 16.1771 37.75 16.3958 37.75 16.625V31.6875C37.75 32.1667 37.5469 32.5312 37.1406 32.7812C36.7344 33.0312 36.3125 33.0417 35.875 32.8125C35.1042 32.3958 34.2969 32.0729 33.4531 31.8438C32.6094 31.6146 31.75 31.5 30.875 31.5C29.625 31.5 28.4167 31.7188 27.25 32.1562C26.0833 32.5938 25 33.2083 24 34Z" fill="#006C49"/>
</svg>
