<svg width="120" height="120" viewBox="0 0 120 120" fill="none" xmlns="http://www.w3.org/2000/svg">
<rect x="12" y="2" width="96" height="96" rx="48" fill="#4F46E5"/>
<g filter="url(#filter0_dd_1_584)">
<rect x="12" y="2" width="96" height="96" rx="48" fill="white" fill-opacity="0.01" shape-rendering="crispEdges"/>
</g>
<path d="M60 53.75C58.75 53.75 57.6875 53.3125 56.8125 52.4375C55.9375 51.5625 55.5 50.5 55.5 49.25V40.25C55.5 39 55.9375 37.9375 56.8125 37.0625C57.6875 36.1875 58.75 35.75 60 35.75C61.25 35.75 62.3125 36.1875 63.1875 37.0625C64.0625 37.9375 64.5 39 64.5 40.25V49.25C64.5 50.5 64.0625 51.5625 63.1875 52.4375C62.3125 53.3125 61.25 53.75 60 53.75ZM58.5 64.25V59.6375C55.9 59.2875 53.75 58.125 52.05 56.15C50.35 54.175 49.5 51.875 49.5 49.25H52.5C52.5 51.325 53.2312 53.0938 54.6937 54.5562C56.1562 56.0187 57.925 56.75 60 56.75C62.075 56.75 63.8438 56.0187 65.3062 54.5562C66.7687 53.0938 67.5 51.325 67.5 49.25H70.5C70.5 51.875 69.65 54.175 67.95 56.15C66.25 58.125 64.1 59.2875 61.5 59.6375V64.25H58.5Z" fill="white"/>
<defs>
<filter id="filter0_dd_1_584" x="0" y="0" width="120" height="120" filterUnits="userSpaceOnUse" color-interpolation-filters="sRGB">
<feFlood flood-opacity="0" result="BackgroundImageFix"/>
<feColorMatrix in="SourceAlpha" type="matrix" values="0 0 0 0 0 0 0 0 0 0 0 0 0 0 0 0 0 0 127 0" result="hardAlpha"/>
<feMorphology radius="4" operator="erode" in="SourceAlpha" result="effect1_dropShadow_1_584"/>
<feOffset dy="4"/>
<feGaussianBlur stdDeviation="3"/>
<feComposite in2="hardAlpha" operator="out"/>
<feColorMatrix type="matrix" values="0 0 0 0 0 0 0 0 0 0 0 0 0 0 0 0 0 0 0.1 0"/>
<feBlend mode="normal" in2="BackgroundImageFix" result="effect1_dropShadow_1_584"/>
<feColorMatrix in="SourceAlpha" type="matrix" values="0 0 0 0 0 0 0 0 0 0 0 0 0 0 0 0 0 0 127 0" result="hardAlpha"/>
<feMorphology radius="3" operator="erode" in="SourceAlpha" result="effect2_dropShadow_1_584"/>
<feOffset dy="10"/>
<feGaussianBlur stdDeviation="7.5"/>
<feComposite in2="hardAlpha" operator="out"/>
<feColorMatrix type="matrix" values="0 0 0 0 0 0 0 0 0 0 0 0 0 0 0 0 0 0 0.1 0"/>
<feBlend mode="normal" in2="effect1_dropShadow_1_584" result="effect2_dropShadow_1_584"/>
<feBlend mode="normal" in="SourceGraphic" in2="effect2_dropShadow_1_584" result="shape"/>
</filter>
</defs>
</svg>
