<svg width="67" height="12" viewBox="0 0 67 12" fill="none" xmlns="http://www.w3.org/2000/svg">
<path d="M2.23125 11.0833L3.17917 6.98542L0 4.22917L4.2 3.86458L5.83333 0L7.46667 3.86458L11.6667 4.22917L8.4875 6.98542L9.43542 11.0833L5.83333 8.91042L2.23125 11.0833Z" fill="#006C49"/>
<path d="M15.8978 11.0833L16.8457 6.98542L13.6665 4.22917L17.8665 3.86458L19.4998 0L21.1332 3.86458L25.3332 4.22917L22.154 6.98542L23.1019 11.0833L19.4998 8.91042L15.8978 11.0833Z" fill="#006C49"/>
<path d="M29.5647 11.0833L30.5127 6.98542L27.3335 4.22917L31.5335 3.86458L33.1668 0L34.8002 3.86458L39.0002 4.22917L35.821 6.98542L36.7689 11.0833L33.1668 8.91042L29.5647 11.0833Z" fill="#006C49"/>
<path d="M44.9958 8.64792L46.8333 7.53958L48.6708 8.6625L48.1896 6.5625L49.8083 5.1625L47.6792 4.97292L46.8333 2.98958L45.9875 4.95833L43.8583 5.14792L45.4771 6.5625L44.9958 8.64792ZM43.2313 11.0833L44.1792 6.98542L41 4.22917L45.2 3.86458L46.8333 0L48.4667 3.86458L52.6667 4.22917L49.4875 6.98542L50.4354 11.0833L46.8333 8.91042L43.2313 11.0833Z" fill="#C7C4D8"/>
<path d="M58.6623 8.64792L60.4998 7.53958L62.3373 8.6625L61.8561 6.5625L63.4748 5.1625L61.3457 4.97292L60.4998 2.98958L59.654 4.95833L57.5248 5.14792L59.1436 6.5625L58.6623 8.64792ZM56.8978 11.0833L57.8457 6.98542L54.6665 4.22917L58.8665 3.86458L60.4998 0L62.1332 3.86458L66.3332 4.22917L63.154 6.98542L64.1019 11.0833L60.4998 8.91042L56.8978 11.0833Z" fill="#C7C4D8"/>
</svg>
