<svg width="80" height="90" viewBox="0 0 80 90" fill="none" xmlns="http://www.w3.org/2000/svg">
<path d="M0 55C0 46.25 2.08333 38.4583 6.25 31.625C10.4167 24.7917 15 19.0417 20 14.375C25 9.70833 29.5833 6.14583 33.75 3.6875C37.9167 1.22917 40 0 40 0V16.5C40 19.5833 41.0417 22.0208 43.125 23.8125C45.2083 25.6042 47.5417 26.5 50.125 26.5C51.5417 26.5 52.8958 26.2083 54.1875 25.625C55.4792 25.0417 56.6667 24.0833 57.75 22.75L60 20C66 23.5 70.8333 28.3542 74.5 34.5625C78.1667 40.7708 80 47.5833 80 55C80 62.3333 78.2083 69.0208 74.625 75.0625C71.0417 81.1042 66.3333 85.875 60.5 89.375C61.9167 87.375 63.0208 85.1875 63.8125 82.8125C64.6042 80.4375 65 77.9167 65 75.25C65 71.9167 64.375 68.7708 63.125 65.8125C61.875 62.8542 60.0833 60.2083 57.75 57.875L40 40.5L22.375 57.875C19.9583 60.2917 18.125 62.9583 16.875 65.875C15.625 68.7917 15 71.9167 15 75.25C15 77.9167 15.3958 80.4375 16.1875 82.8125C16.9792 85.1875 18.0833 87.375 19.5 89.375C13.6667 85.875 8.95833 81.1042 5.375 75.0625C1.79167 69.0208 0 62.3333 0 55ZM40 54.5L50.625 64.875C52.0417 66.2917 53.125 67.875 53.875 69.625C54.625 71.375 55 73.25 55 75.25C55 79.3333 53.5417 82.8125 50.625 85.6875C47.7083 88.5625 44.1667 90 40 90C35.8333 90 32.2917 88.5625 29.375 85.6875C26.4583 82.8125 25 79.3333 25 75.25C25 73.3333 25.375 71.4792 26.125 69.6875C26.875 67.8958 27.9583 66.2917 29.375 64.875L40 54.5Z" fill="#F59E0B"/>
</svg>
