<svg width="56" height="56" viewBox="0 0 56 56" fill="none" xmlns="http://www.w3.org/2000/svg">
<path d="M28 52C41.246 52 52 41.246 52 28C52 14.754 41.246 4 28 4C14.754 4 4 14.754 4 28C4 41.246 14.754 52 28 52V52" stroke="#E8E7EF" stroke-width="4"/>
<path d="M28 52C41.246 52 52 41.246 52 28C52 14.754 41.246 4 28 4C14.754 4 4 14.754 4 28C4 41.246 14.754 52 28 52V52" stroke="#006C49" stroke-width="4"/>
<path d="M19.8091 31.5977C19.4413 31.5977 19.085 31.5362 18.74 31.4132C18.3951 31.2902 18.0867 31.0906 17.8148 30.8144C17.543 30.5381 17.3273 30.1722 17.1679 29.7165C17.0085 29.2609 16.9288 28.7004 16.9288 28.0351C16.9288 27.422 16.9973 26.8742 17.1343 26.3919C17.2713 25.9095 17.4685 25.4997 17.7259 25.1625C17.9832 24.8252 18.2926 24.5683 18.6539 24.3917C19.0152 24.2152 19.4192 24.127 19.866 24.127C20.3432 24.127 20.7658 24.2202 21.1338 24.4067C21.5018 24.5932 21.7984 24.8458 22.0237 25.1645C22.249 25.4832 22.3857 25.8427 22.4337 26.2429H20.9665C20.9062 25.9851 20.7793 25.7821 20.5857 25.6338C20.3921 25.4855 20.1522 25.4114 19.866 25.4114C19.5459 25.4114 19.2762 25.5055 19.0569 25.6937C18.8375 25.8819 18.6721 26.1498 18.5605 26.4974C18.4489 26.8451 18.3931 27.2583 18.3931 27.7373H18.4411C18.552 27.5249 18.6995 27.3424 18.8835 27.1896C19.0676 27.0368 19.2785 26.92 19.5163 26.8391C19.7541 26.7582 20.0045 26.7178 20.2674 26.7178C20.6981 26.7178 21.0821 26.8186 21.4192 27.0201C21.7564 27.2217 22.0221 27.4995 22.2165 27.8537C22.4109 28.2079 22.5081 28.6132 22.5081 29.0696C22.5081 29.559 22.3949 29.9942 22.1685 30.375C21.9421 30.7559 21.6265 31.0549 21.2217 31.272C20.8169 31.4891 20.3461 31.5977 19.8091 31.5977ZM19.7985 30.4157C20.0405 30.4157 20.2563 30.3578 20.4459 30.2421C20.6354 30.1264 20.7853 29.9698 20.8957 29.7724C21.006 29.575 21.0612 29.353 21.0612 29.1065C21.0612 28.8631 21.0072 28.6433 20.8991 28.4474C20.791 28.2515 20.6429 28.0964 20.4548 27.9822C20.2668 27.868 20.0518 27.8109 19.8098 27.8109C19.6306 27.8109 19.4643 27.8448 19.3108 27.9126C19.1572 27.9804 19.0229 28.0741 18.9078 28.1939C18.7927 28.3136 18.7032 28.4518 18.6393 28.6086C18.5754 28.7654 18.5434 28.9328 18.5434 29.111C18.5434 29.35 18.5978 29.5682 18.7067 29.7657C18.8155 29.9631 18.9652 30.1208 19.1556 30.2387C19.346 30.3567 19.5603 30.4157 19.7985 30.4157ZM26.3346 31.5977C25.7223 31.5977 25.1994 31.4503 24.7658 31.1556C24.3322 30.8608 24 30.436 23.7692 29.881C23.5384 29.3259 23.4229 28.6543 23.4229 27.8659C23.4229 27.0807 23.5387 26.4096 23.7702 25.8524C24.0017 25.2951 24.3342 24.8683 24.7676 24.5717C25.201 24.2752 25.7233 24.127 26.3345 24.127C26.9457 24.127 27.4689 24.2755 27.9041 24.5726C28.3394 24.8697 28.6719 25.2966 28.9019 25.8532C29.1318 26.4099 29.2468 27.0813 29.2468 27.8675C29.2468 28.6537 29.1322 29.3246 28.903 29.8802C28.6738 30.4357 28.3424 30.8608 27.9088 31.1556C27.4752 31.4503 26.9505 31.5977 26.3346 31.5977ZM26.3352 30.3599C26.6335 30.3599 26.8862 30.2628 27.0932 30.0686C27.3001 29.8744 27.4577 29.5917 27.566 29.2204C27.6742 28.8491 27.7283 28.3979 27.7283 27.8669C27.7283 27.333 27.6742 26.8792 27.566 26.5055C27.4577 26.1319 27.3 25.8471 27.0926 25.6511C26.8853 25.4551 26.633 25.3572 26.3357 25.3572C26.0383 25.3572 25.7857 25.4555 25.5779 25.6522C25.3701 25.8489 25.212 26.1337 25.1038 26.5067C24.9956 26.8796 24.9414 27.333 24.9414 27.8669C24.9414 28.3979 24.9951 28.8491 25.1025 29.2204C25.2098 29.5917 25.3675 29.8744 25.5756 30.0686C25.7836 30.2628 26.0368 30.3599 26.3352 30.3599ZM32.2006 27.6982C31.8579 27.6982 31.5686 27.6249 31.3325 27.4784C31.0964 27.3319 30.9177 27.1366 30.7964 26.8927C30.675 26.6487 30.6143 26.3828 30.6143 26.0947V25.7139C30.6143 25.4223 30.6763 25.155 30.8001 24.9118C30.924 24.6686 31.1044 24.4737 31.3413 24.3272C31.5783 24.1807 31.8647 24.1074 32.2006 24.1074C32.5482 24.1074 32.8394 24.1807 33.0739 24.3272C33.3085 24.4737 33.4861 24.6686 33.6067 24.9118C33.7273 25.155 33.7876 25.4223 33.7876 25.7139V26.0947C33.7876 26.3863 33.7265 26.6536 33.6043 26.8966C33.482 27.1397 33.3032 27.3341 33.0677 27.4797C32.8323 27.6253 32.5432 27.6982 32.2006 27.6982ZM32.2006 26.8027C32.4199 26.8027 32.5694 26.7292 32.6492 26.582C32.729 26.4348 32.7689 26.2724 32.7689 26.0947V25.7139C32.7689 25.5377 32.7307 25.3739 32.6541 25.2225C32.5775 25.071 32.4264 24.9953 32.2006 24.9953C31.9863 24.9953 31.8382 25.0724 31.7561 25.2264C31.674 25.3805 31.633 25.543 31.633 25.7139V26.0947C31.633 26.2724 31.6742 26.4348 31.7565 26.582C31.8388 26.7292 31.9868 26.8027 32.2006 26.8027ZM37.3679 31.6284C37.0253 31.6284 36.7359 31.5552 36.4998 31.4086C36.2638 31.2621 36.085 31.0669 35.9637 30.8229C35.8423 30.579 35.7817 30.313 35.7817 30.025V29.6441C35.7817 29.3526 35.8436 29.0852 35.9674 28.842C36.0913 28.5988 36.2717 28.404 36.5087 28.2575C36.7456 28.1109 37.032 28.0377 37.3679 28.0377C37.7156 28.0377 38.007 28.1109 38.2424 28.2575C38.4777 28.404 38.6553 28.5988 38.7751 28.842C38.895 29.0852 38.9549 29.3526 38.9549 29.6441V30.025C38.9549 30.3165 38.8938 30.5838 38.7716 30.8269C38.6493 31.07 38.4705 31.2643 38.235 31.41C37.9996 31.5556 37.7105 31.6284 37.3679 31.6284ZM37.3679 30.733C37.5872 30.733 37.7367 30.6594 37.8165 30.5122C37.8963 30.3651 37.9363 30.2027 37.9363 30.025V29.6441C37.9363 29.468 37.898 29.3042 37.8214 29.1527C37.7448 29.0013 37.5937 28.9256 37.3679 28.9256C37.1536 28.9256 37.0055 29.0026 36.9234 29.1567C36.8414 29.3108 36.8003 29.4732 36.8003 29.6441V30.025C36.8003 30.2027 36.8415 30.3651 36.9238 30.5122C37.0061 30.6594 37.1542 30.733 37.3679 30.733ZM31.754 31.5L36.754 24.2246H37.7664L32.7664 31.5H31.754Z" fill="#006C49"/>
</svg>
