<svg width="215" height="20" viewBox="0 0 215 20" fill="none" xmlns="http://www.w3.org/2000/svg">
<path d="M4.55234 15.1367C3.79282 15.1367 3.11849 15.0117 2.52937 14.7618C1.94024 14.5118 1.4784 14.1702 1.14385 13.7369C0.809294 13.3035 0.642017 12.8124 0.642017 12.2634C0.642017 11.84 0.73845 11.4497 0.931316 11.0927C1.12418 10.7357 1.38639 10.4378 1.71793 10.1991C2.04948 9.96041 2.42161 9.80688 2.83432 9.73852V9.67645C2.29327 9.56115 1.85415 9.29343 1.51695 8.87329C1.17976 8.45316 1.01116 7.96683 1.01116 7.4143C1.01116 6.88738 1.16406 6.41814 1.46985 6.00657C1.77565 5.595 2.19524 5.27064 2.72863 5.03348C3.26202 4.79632 3.86993 4.67773 4.55234 4.67773C5.23302 4.67773 5.84068 4.79632 6.3753 5.03348C6.90992 5.27064 7.33065 5.59562 7.63749 6.00842C7.94434 6.42122 8.09776 6.88985 8.09776 7.4143C8.09776 7.96929 7.92741 8.45623 7.5867 8.87514C7.246 9.29405 6.81073 9.56115 6.28089 9.67645V9.73852C6.68695 9.80688 7.05575 9.96041 7.3873 10.1991C7.71884 10.4378 7.98271 10.7357 8.1789 11.0927C8.37509 11.4497 8.47319 11.84 8.47319 12.2634C8.47319 12.8124 8.30487 13.3035 7.96822 13.7369C7.63157 14.1702 7.16806 14.5118 6.57771 14.7618C5.98735 15.0117 5.31223 15.1367 4.55234 15.1367ZM4.55234 13.5916C4.90261 13.5916 5.20796 13.5286 5.46841 13.4027C5.72885 13.2767 5.93185 13.1014 6.07741 12.8766C6.22297 12.6518 6.29574 12.3927 6.29574 12.0991C6.29574 11.7996 6.22035 11.5347 6.06955 11.3044C5.91875 11.074 5.71208 10.8923 5.44954 10.7592C5.187 10.6261 4.88793 10.5595 4.55234 10.5595C4.21748 10.5595 3.91878 10.6255 3.65624 10.7574C3.39369 10.8892 3.18703 11.0703 3.03623 11.3007C2.88543 11.531 2.81003 11.7971 2.81003 12.0991C2.81003 12.3927 2.88229 12.6512 3.02679 12.8748C3.1713 13.0983 3.37483 13.2736 3.63737 13.4008C3.89991 13.528 4.2049 13.5916 4.55234 13.5916ZM4.55234 9.02592C4.84346 9.02592 5.10155 8.96707 5.32663 8.84936C5.55171 8.73164 5.72977 8.56751 5.86079 8.35697C5.9918 8.14643 6.05731 7.90594 6.05731 7.63552C6.05731 7.36263 5.99338 7.12425 5.8655 6.92036C5.73763 6.71647 5.56062 6.55733 5.33449 6.44294C5.10837 6.32856 4.84765 6.27136 4.55234 6.27136C4.2574 6.27136 3.99686 6.32856 3.77073 6.44294C3.5446 6.55733 3.36822 6.71647 3.24157 6.92036C3.11493 7.12425 3.05161 7.36263 3.05161 7.63552C3.05161 7.90594 3.11545 8.14581 3.24314 8.35512C3.37084 8.56444 3.54827 8.72857 3.77545 8.84751C4.00263 8.96645 4.26159 9.02592 4.55234 9.02592ZM10.3244 15L14.5619 6.60291V6.53565H9.62718V4.81445H16.7381V6.56709L12.489 15H10.3244ZM20.7442 9.67743C20.2645 9.67743 19.8594 9.57487 19.5289 9.36974C19.1984 9.16462 18.9482 8.89129 18.7783 8.54977C18.6084 8.20824 18.5235 7.83586 18.5235 7.43263V6.89943C18.5235 6.49127 18.6102 6.11696 18.7836 5.77648C18.957 5.436 19.2095 5.1632 19.5413 4.95808C19.873 4.75295 20.274 4.65039 20.7442 4.65039C21.2309 4.65039 21.6385 4.75295 21.9669 4.95808C22.2953 5.1632 22.5439 5.436 22.7128 5.77648C22.8816 6.11696 22.966 6.49127 22.966 6.89943V7.43263C22.966 7.84078 22.8805 8.21501 22.7093 8.5553C22.5382 8.8956 22.2878 9.16769 21.9582 9.37159C21.6286 9.57548 21.2239 9.67743 20.7442 9.67743ZM20.7442 8.42383C21.0512 8.42383 21.2605 8.32081 21.3723 8.11478C21.484 7.90875 21.5399 7.68136 21.5399 7.43263V6.89943C21.5399 6.65279 21.4863 6.42347 21.3791 6.21147C21.2719 5.99946 21.0603 5.89346 20.7442 5.89346C20.4442 5.89346 20.2368 6.00131 20.1219 6.21701C20.007 6.4327 19.9496 6.66017 19.9496 6.89943V7.43263C19.9496 7.68136 20.0072 7.90875 20.1225 8.11478C20.2377 8.32081 20.445 8.42383 20.7442 8.42383ZM27.9784 15.1798C27.4987 15.1798 27.0936 15.0772 26.7631 14.8721C26.4326 14.667 26.1824 14.3936 26.0125 14.0521C25.8426 13.7106 25.7577 13.3382 25.7577 12.935V12.4018C25.7577 11.9936 25.8444 11.6193 26.0178 11.2788C26.1912 10.9384 26.4438 10.6656 26.7755 10.4604C27.1072 10.2553 27.5082 10.1527 27.9784 10.1527C28.4652 10.1527 28.8732 10.2553 29.2027 10.4604C29.5321 10.6656 29.7808 10.9384 29.9486 11.2788C30.1164 11.6193 30.2003 11.9936 30.2003 12.4018V12.935C30.2003 13.3431 30.1147 13.7174 29.9436 14.0577C29.7725 14.398 29.5221 14.67 29.1924 14.8739C28.8628 15.0778 28.4581 15.1798 27.9784 15.1798ZM27.9784 13.9262C28.2854 13.9262 28.4948 13.8232 28.6065 13.6171C28.7183 13.4111 28.7741 13.1837 28.7741 12.935V12.4018C28.7741 12.1551 28.7205 11.9258 28.6134 11.7138C28.5062 11.5018 28.2945 11.3958 27.9784 11.3958C27.6785 11.3958 27.4711 11.5037 27.3562 11.7194C27.2413 11.9351 27.1838 12.1625 27.1838 12.4018V12.935C27.1838 13.1837 27.2415 13.4111 27.3567 13.6171C27.472 13.8232 27.6792 13.9262 27.9784 13.9262ZM20.119 15L27.119 4.81445H28.5364L21.5364 15H20.119ZM37.7974 15.1482C37.3119 15.1482 36.8769 15.0626 36.4925 14.8914C36.1082 14.7202 35.8059 14.4652 35.5858 14.1266C35.3657 13.788 35.2557 13.3669 35.2557 12.8631C35.2557 12.4354 35.3336 12.0787 35.4896 11.793C35.6455 11.5072 35.859 11.2771 36.1299 11.1027C36.4008 10.9282 36.7087 10.7955 37.0534 10.7045C37.3982 10.6135 37.7594 10.5501 38.137 10.5144C38.578 10.4699 38.934 10.428 39.2051 10.3887C39.4762 10.3495 39.6751 10.288 39.8018 10.2044C39.9285 10.1208 39.9918 9.99659 39.9918 9.83189V9.79826C39.9918 9.58015 39.9455 9.39566 39.8529 9.24477C39.7602 9.09388 39.625 8.97827 39.447 8.89793C39.2691 8.81759 39.0504 8.77741 38.7909 8.77741C38.5297 8.77741 38.3012 8.81715 38.1055 8.89663C37.9097 8.97611 37.7494 9.08222 37.6245 9.21497C37.4996 9.34772 37.4097 9.49681 37.3547 9.66224L35.4744 9.35012C35.6039 8.90496 35.8215 8.52737 36.1271 8.21733C36.4327 7.9073 36.8125 7.67052 37.2664 7.507C37.7204 7.34348 38.2307 7.26172 38.7974 7.26172C39.2076 7.26172 39.6064 7.31032 39.9938 7.40753C40.3812 7.50474 40.7289 7.6568 41.0369 7.8637C41.3448 8.0706 41.5893 8.33816 41.7703 8.66638C41.9514 8.99459 42.0419 9.39075 42.0419 9.85486V15H40.0973V13.9388H40.03C39.9065 14.1756 39.7423 14.3849 39.5373 14.5666C39.3324 14.7483 39.0859 14.8907 38.7978 14.9937C38.5096 15.0967 38.1762 15.1482 37.7974 15.1482ZM38.3748 13.7106C38.6976 13.7106 38.9812 13.6463 39.2255 13.5178C39.4698 13.3893 39.6611 13.2159 39.7993 12.9975C39.9375 12.7791 40.0066 12.5359 40.0066 12.2678V11.4408C39.9442 11.4828 39.852 11.5222 39.7302 11.559C39.6083 11.5958 39.4724 11.6287 39.3224 11.6578C39.1723 11.6869 39.0242 11.7121 38.878 11.7335C38.7318 11.7548 38.602 11.7736 38.4884 11.7897C38.2365 11.8237 38.015 11.8815 37.8239 11.9629C37.6329 12.0444 37.4845 12.1534 37.3788 12.2898C37.2731 12.4263 37.2202 12.5973 37.2202 12.8028C37.2202 13.0007 37.2701 13.1669 37.3699 13.3016C37.4697 13.4363 37.6061 13.5381 37.7791 13.6071C37.9521 13.6761 38.1507 13.7106 38.3748 13.7106ZM45.8394 10.575V15H43.7894V7.35742H45.7251L45.7578 9.26534H45.6348C45.8353 8.62787 46.1397 8.13456 46.5483 7.78543C46.9568 7.43629 47.4836 7.26172 48.1289 7.26172C48.6586 7.26172 49.1202 7.3769 49.5138 7.60728C49.9073 7.83765 50.2129 8.16774 50.4306 8.59753C50.6483 9.02733 50.7572 9.54119 50.7572 10.1391V15H48.7071V10.4964C48.7071 10.0217 48.5847 9.64938 48.3398 9.37946C48.095 9.10954 47.7564 8.97458 47.3241 8.97458C47.0358 8.97458 46.7797 9.03772 46.5557 9.164C46.3317 9.29028 46.1563 9.47224 46.0296 9.7099C45.9028 9.94756 45.8394 10.2359 45.8394 10.575ZM52.5052 15V7.35742H54.5552V15H52.5052ZM53.5296 6.36117C53.2209 6.36117 52.9564 6.25797 52.7361 6.05157C52.5158 5.84518 52.4057 5.5975 52.4057 5.30854C52.4057 5.01369 52.5158 4.76427 52.7361 4.56028C52.9564 4.35629 53.2209 4.2543 53.5296 4.2543C53.8398 4.2543 54.1051 4.35616 54.3258 4.55989C54.5464 4.76361 54.6568 5.0131 54.6568 5.30835C54.6568 5.5977 54.5464 5.8455 54.3258 6.05177C54.1051 6.25804 53.8398 6.36117 53.5296 6.36117ZM63.3757 17.8574H61.3257V13.7768H61.2595C61.1652 13.982 61.0279 14.1882 60.8477 14.3952C60.6674 14.6022 60.4346 14.7759 60.1493 14.9164C59.864 15.0569 59.512 15.1271 59.0932 15.1271C58.509 15.1271 57.9811 14.9758 57.5094 14.6732C57.0378 14.3705 56.6653 13.9267 56.3918 13.3416C56.1184 12.7565 55.9817 12.04 55.9817 11.1918C55.9817 10.3212 56.1226 9.5945 56.4045 9.01171C56.6863 8.42893 57.0625 7.99156 57.5329 7.69963C58.0033 7.40769 58.5195 7.26172 59.0816 7.26172C59.5144 7.26172 59.8747 7.33452 60.1627 7.48012C60.4507 7.62573 60.6831 7.80529 60.8601 8.0188C61.037 8.23231 61.1701 8.44064 61.2595 8.64381H61.3593V7.35742H63.3757V17.8574ZM59.7245 13.4839C60.0737 13.4839 60.3708 13.3878 60.616 13.1957C60.8612 13.0036 61.048 12.7353 61.1764 12.391C61.3047 12.0466 61.3689 11.6448 61.3689 11.1855C61.3689 10.7213 61.3053 10.3191 61.1779 9.97875C61.0506 9.63842 60.8643 9.37437 60.6192 9.18662C60.374 8.99886 60.0758 8.90498 59.7245 8.90498C59.3669 8.90498 59.0663 9.002 58.8225 9.19605C58.5788 9.39009 58.395 9.65833 58.2712 10.0008C58.1473 10.3432 58.0854 10.7381 58.0854 11.1855C58.0854 11.6326 58.1479 12.0295 58.2727 12.3761C58.3976 12.7227 58.5824 12.994 58.8272 13.1899C59.0721 13.3859 59.3711 13.4839 59.7245 13.4839ZM67.1743 4.81445V15H65.1243V4.81445H67.1743ZM68.9183 15V7.35742H70.9683V15H68.9183ZM69.9427 6.36117C69.634 6.36117 69.3695 6.25797 69.1492 6.05157C68.9289 5.84518 68.8187 5.5975 68.8187 5.30854C68.8187 5.01369 68.9289 4.76427 69.1492 4.56028C69.3695 4.35629 69.634 4.2543 69.9427 4.2543C70.2528 4.2543 70.5182 4.35616 70.7389 4.55989C70.9595 4.76361 71.0699 5.0131 71.0699 5.30835C71.0699 5.5977 70.9595 5.8455 70.7389 6.05177C70.5182 6.25804 70.2528 6.36117 69.9427 6.36117ZM74.5726 12.7614V10.2956H74.8831L77.3828 7.35742H79.7526L76.451 11.1903H75.9673L74.5726 12.7614ZM72.7122 15V4.81445H74.7622V15H72.7122ZM77.4825 15L75.1916 11.6484L76.5613 10.1932L79.8996 15H77.4825Z" fill="#006C49"/>
<rect x="86.9199" y="6" width="128" height="8" rx="4" fill="#E8E7EF"/>
<rect x="86.9199" y="6" width="111.36" height="8" fill="#006C49"/>
</svg>
