<svg width="156" height="20" viewBox="0 0 156 20" fill="none" xmlns="http://www.w3.org/2000/svg">
<rect y="4" width="8" height="8" rx="4" fill="#006C49"/>
<rect x="16" y="4" width="8" height="8" rx="4" fill="#006C49"/>
<rect x="32" y="4" width="8" height="8" rx="4" fill="#006C49"/>
<rect x="48" y="4" width="8" height="8" rx="4" fill="#006C49"/>
<rect x="64" y="4" width="12" height="12" rx="6" fill="#3525CD"/>
<g filter="url(#filter0_d_1_1134)">
<rect x="64" y="4" width="12" height="12" rx="6" fill="white" fill-opacity="0.01" shape-rendering="crispEdges"/>
</g>
<rect x="84" y="4" width="8" height="8" rx="4" fill="#E8E7EF"/>
<rect x="100" y="4" width="8" height="8" rx="4" fill="#E8E7EF"/>
<rect x="116" y="4" width="8" height="8" rx="4" fill="#E8E7EF"/>
<rect x="132" y="4" width="8" height="8" rx="4" fill="#E8E7EF"/>
<rect x="148" y="4" width="8" height="8" rx="4" fill="#E8E7EF"/>
<defs>
<filter id="filter0_d_1_1134" x="60" y="0" width="20" height="20" filterUnits="userSpaceOnUse" color-interpolation-filters="sRGB">
<feFlood flood-opacity="0" result="BackgroundImageFix"/>
<feColorMatrix in="SourceAlpha" type="matrix" values="0 0 0 0 0 0 0 0 0 0 0 0 0 0 0 0 0 0 127 0" result="hardAlpha"/>
<feMorphology radius="4" operator="dilate" in="SourceAlpha" result="effect1_dropShadow_1_1134"/>
<feOffset/>
<feComposite in2="hardAlpha" operator="out"/>
<feColorMatrix type="matrix" values="0 0 0 0 0.207843 0 0 0 0 0.145098 0 0 0 0 0.803922 0 0 0 0.1 0"/>
<feBlend mode="normal" in2="BackgroundImageFix" result="effect1_dropShadow_1_1134"/>
<feBlend mode="normal" in="SourceGraphic" in2="effect1_dropShadow_1_1134" result="shape"/>
</filter>
</defs>
</svg>
